<svg xmlns="http://www.w3.org/2000/svg" xmlns:xlink="http://www.w3.org/1999/xlink" viewBox="0 0 283.46 283.46"><defs><style>.cls-1{fill:url(#未命名的渐变_795);}.cls-2{fill:#40194a;}.cls-3{fill:#fff;}</style><radialGradient id="未命名的渐变_795" cx="20.09" cy="121.48" r="141.76" gradientTransform="translate(177.05 23.77) rotate(26.06)" gradientUnits="userSpaceOnUse"><stop offset="0" stop-color="#aa47ab"/><stop offset="0.51" stop-color="#ab49ab"/><stop offset="0.69" stop-color="#ad50ac"/><stop offset="0.82" stop-color="#b25bae"/><stop offset="0.92" stop-color="#b96cb0"/><stop offset="1" stop-color="#c07fb3"/></radialGradient></defs><g id="图层_2" data-name="图层 2"><g id="图层_1-2" data-name="图层 1"><circle class="cls-1" cx="141.73" cy="141.73" r="141.73" transform="translate(-58.71 141.73) rotate(-45)"/><path class="cls-2" d="M206.53,198.42c-7.08-17-24.31-28.34-64.8-28.34S84,181.45,76.93,198.42c-3.78,9.07,1.64,18.9,1.64,18.9,2.11,5.75,10.46,9.45,63.17,9.45s61-3.7,63.16-9.45C204.9,217.32,210.32,207.49,206.53,198.42Z"/><path class="cls-3" d="M188.84,193.53a4.08,4.08,0,0,0-.91-3.76s-10.54-10.24-46.2-10.24-46.2,10.24-46.2,10.24a4.1,4.1,0,0,0-.9,3.76l.82,2.66a3.19,3.19,0,0,0,2.74,2.23h87.08a3.19,3.19,0,0,0,2.76-2.23Z"/><path class="cls-2" d="M94.49,78.74c10.87,0,19.68,12.34,19.68,27.56s-8.81,27.56-19.68,27.56S74.8,121.52,74.8,106.3,83.62,78.74,94.49,78.74Z"/><ellipse class="cls-2" cx="188.98" cy="106.3" rx="19.69" ry="27.56"/></g></g></svg>