<svg xmlns="http://www.w3.org/2000/svg" xmlns:xlink="http://www.w3.org/1999/xlink" viewBox="0 0 283.46 283.46"><defs><style>.cls-1{fill:url(#未命名的渐变_53);}.cls-2{fill:#40194a;}.cls-3{fill:#fff;}</style><radialGradient id="未命名的渐变_53" cx="144.67" cy="142.28" r="141.76" gradientTransform="translate(74.27 -49.65) rotate(26.06)" gradientUnits="userSpaceOnUse"><stop offset="0" stop-color="#954bab"/><stop offset="0.58" stop-color="#934bab"/><stop offset="0.79" stop-color="#8c4bab"/><stop offset="0.94" stop-color="#814bab"/><stop offset="1" stop-color="#794bab"/></radialGradient></defs><g id="图层_2" data-name="图层 2"><g id="图层_1-2" data-name="图层 1"><circle class="cls-1" cx="141.73" cy="141.73" r="141.73" transform="translate(-58.71 141.73) rotate(-45)"/><path class="cls-2" d="M87.4,89.76a23.63,23.63,0,1,1-23.62,23.63A23.62,23.62,0,0,1,87.4,89.76Z"/><path class="cls-2" d="M196.06,89.76a23.63,23.63,0,1,1-23.62,23.63A23.62,23.62,0,0,1,196.06,89.76Z"/><path class="cls-2" d="M206.53,198.42c-7.08-17-24.31-28.34-64.8-28.34S84,181.45,76.93,198.42c-3.78,9.07,1.64,18.9,1.64,18.9,2.11,5.75,10.46,9.45,63.17,9.45s61-3.7,63.16-9.45C204.9,217.32,210.32,207.49,206.53,198.42Z"/><path class="cls-3" d="M188.84,193.53a4.08,4.08,0,0,0-.91-3.76s-10.54-10.24-46.2-10.24-46.2,10.24-46.2,10.24a4.1,4.1,0,0,0-.9,3.76l.82,2.66a3.19,3.19,0,0,0,2.74,2.23h87.08a3.19,3.19,0,0,0,2.76-2.23Z"/></g></g></svg>