<svg xmlns="http://www.w3.org/2000/svg" xmlns:xlink="http://www.w3.org/1999/xlink" viewBox="0 0 283.46 283.46"><defs><style>.cls-1{fill:url(#未命名的渐变_24);}.cls-2{fill:#1c7c29;}</style><radialGradient id="未命名的渐变_24" cx="255.38" cy="217.05" r="141.73" gradientTransform="translate(114.63 -192.33) rotate(45)" gradientUnits="userSpaceOnUse"><stop offset="0.02" stop-color="#bbdc55"/><stop offset="0.52" stop-color="#b9db53"/><stop offset="0.7" stop-color="#b3d74c"/><stop offset="0.83" stop-color="#a8d041"/><stop offset="0.93" stop-color="#99c730"/><stop offset="1" stop-color="#89bd1f"/></radialGradient></defs><g id="图层_2" data-name="图层 2"><g id="图层_1-2" data-name="图层 1"><circle class="cls-1" cx="141.73" cy="141.73" r="141.73" transform="translate(-58.71 141.73) rotate(-45)"/><path class="cls-2" d="M82.8,186c.35,1.41,9.19,34.48,58.93,34.48S200.31,187.4,200.67,186a3.92,3.92,0,0,0-1.87-4.36,4,4,0,0,0-4.72.61c-.15.15-15.39,14.61-52.35,14.61s-52.2-14.46-52.34-14.61a4,4,0,0,0-2.78-1.14A3.94,3.94,0,0,0,82.8,186Z"/><ellipse class="cls-2" cx="94.49" cy="106.3" rx="19.69" ry="27.56"/><ellipse class="cls-2" cx="188.98" cy="106.3" rx="19.69" ry="27.56"/></g></g></svg>