<svg xmlns="http://www.w3.org/2000/svg" xmlns:xlink="http://www.w3.org/1999/xlink" viewBox="0 0 291.34 291.34"><defs><style>.cls-1,.cls-2{stroke:#eaeff3;stroke-dashoffset:1417.32px;stroke-width:7.87px;stroke-dasharray:1417.32;}.cls-1{fill:url(#未命名的渐变_57);}.cls-2{fill:#664500;}</style><radialGradient id="未命名的渐变_57" cx="146.32" cy="145.35" r="141.76" gradientTransform="matrix(0.98, 0.19, -0.19, 0.98, 29.89, -25.01)" gradientUnits="userSpaceOnUse"><stop offset="0" stop-color="#ed9200"/><stop offset="0.53" stop-color="#ed9000"/><stop offset="0.72" stop-color="#ed8900"/><stop offset="0.86" stop-color="#ed7e00"/><stop offset="0.97" stop-color="#ed6d00"/><stop offset="1" stop-color="#ed6600"/></radialGradient></defs><g id="图层_2" data-name="图层 2"><g id="图层_1-2" data-name="图层 1"><path class="cls-1" d="M145.67,3.94A141.73,141.73,0,1,1,3.94,145.67,141.72,141.72,0,0,1,145.67,3.94Z"/><path class="cls-2" d="M204.61,219.52c-.36-1.41-9.2-34.48-58.94-34.48s-58.58,33.07-58.94,34.48a3.95,3.95,0,0,0,6.59,3.76c.15-.15,15.39-14.62,52.35-14.62s52.2,14.47,52.35,14.61a3.92,3.92,0,0,0,2.77,1.14,4,4,0,0,0,1.93-.5A4,4,0,0,0,204.61,219.52Z"/><path class="cls-2" d="M98.43,82.68c10.87,0,19.68,12.34,19.68,27.56S109.3,137.8,98.43,137.8s-19.69-12.34-19.69-27.56S87.55,82.68,98.43,82.68Z"/><path class="cls-2" d="M192.91,82.68c10.88,0,19.69,12.34,19.69,27.56s-8.81,27.56-19.69,27.56-19.68-12.34-19.68-27.56S182,82.68,192.91,82.68Z"/></g></g></svg>