<svg xmlns="http://www.w3.org/2000/svg" xmlns:xlink="http://www.w3.org/1999/xlink" viewBox="0 0 291.34 291.34"><defs><style>.cls-1,.cls-2{stroke:#eaeff3;stroke-dashoffset:1417.32px;stroke-width:7.87px;stroke-dasharray:1417.32;}.cls-1{fill:url(#未命名的渐变_61);}.cls-2{fill:#292f33;}</style><radialGradient id="未命名的渐变_61" cx="145.68" cy="145.67" r="141.73" gradientTransform="translate(-0.01)" gradientUnits="userSpaceOnUse"><stop offset="0" stop-color="#d74c47"/><stop offset="0.51" stop-color="#d84e49"/><stop offset="0.69" stop-color="#dd5450"/><stop offset="0.82" stop-color="#e65e5b"/><stop offset="0.92" stop-color="#f26d6c"/><stop offset="1" stop-color="#ff7e7f"/></radialGradient></defs><g id="图层_2" data-name="图层 2"><g id="图层_1-2" data-name="图层 1"><path class="cls-1" d="M287.4,145.67A141.73,141.73,0,1,1,145.67,3.94,141.74,141.74,0,0,1,287.4,145.67"/><path class="cls-2" d="M204.61,239.2c-.36-1.4-9.2-34.48-58.94-34.48S87.09,237.8,86.73,239.2A3.94,3.94,0,0,0,93.32,243c.15-.15,15.39-14.61,52.35-14.61S197.87,242.81,198,243a3.93,3.93,0,0,0,6.59-3.75Zm-77-99.1C102,114.47,60.8,114.17,59.06,114.17a7.88,7.88,0,0,0,0,15.75,109.61,109.61,0,0,1,31.36,5.8c-4.67,5-7.73,12.87-7.73,21.76,0,15.23,8.81,27.56,19.68,27.56s19.69-12.33,19.69-27.56a37.08,37.08,0,0,0-.29-4c.1,0,.19,0,.29,0a7.87,7.87,0,0,0,5.56-13.44Zm104.67-25.93c-1.74,0-42.92.3-68.56,25.93a7.87,7.87,0,0,0,5.57,13.44c.1,0,.19,0,.28,0-.12,1.31-.28,2.62-.28,4,0,15.23,8.81,27.56,19.69,27.56s19.68-12.33,19.68-27.56c0-8.89-3.06-16.72-7.73-21.76a109.55,109.55,0,0,1,31.37-5.8,7.88,7.88,0,0,0,0-15.75Z"/></g></g></svg>